<?xml version="1.0" encoding="iso-8859-1"?>
<!-- Generator: Adobe Illustrator 19.0.0, SVG Export Plug-In . SVG Version: 6.00 Build 0)  -->
<svg version="1.1" id="Layer_1" xmlns="http://www.w3.org/2000/svg" xmlns:xlink="http://www.w3.org/1999/xlink" x="0px" y="0px"
	 viewBox="0 0 512 512" style="enable-background:new 0 0 512 512;" fill="#ef4980" xml:space="preserve">
<g>
	<g>
		<path d="M440.86,303.607c-27.106,0-59.31-6.311-68.409-24.022c-5.41-10.534,0.128-22.059,5.728-29.872
			c21.037-29.36,32.158-62.108,32.158-94.703C410.336,69.538,341.101,0,255.999,0S101.662,69.538,101.662,155.01
			c0,32.595,11.12,65.343,32.158,94.703c5.598,7.813,11.138,19.339,5.728,29.872c-9.099,17.712-41.303,24.022-68.409,24.022
			c-30.01,0-54.424,24.497-54.424,54.609s24.415,54.609,54.424,54.609c13.878,0,32.714-3.057,49.694-7.208
			c-3.563,2.705-7.187,5.417-10.638,7.91c-21.305,15.39-28.094,40.131-17.718,64.568c6.132,14.441,18.071,25.704,32.76,30.902
			c13.514,4.781,27.708,3.827,39.96-2.695c35.939-19.129,59.199-51.213,76.181-74.639c4.617-6.369,10.521-14.513,14.62-19.001
			c4.099,4.489,10.003,12.633,14.621,19.001c16.983,23.426,40.242,55.509,76.181,74.639c7.114,3.786,14.882,5.698,22.793,5.698
			c5.713,0,11.5-0.997,17.168-3.002c14.688-5.197,26.629-16.46,32.76-30.902c10.375-24.438,3.587-49.178-17.717-64.568
			c-3.453-2.493-7.075-5.206-10.639-7.91c16.979,4.15,35.818,7.208,49.694,7.208c30.01,0,54.424-24.497,54.424-54.609
			C495.285,328.106,470.87,303.607,440.86,303.607z M204.312,193.512c-11.237,0-20.381-9.291-20.381-20.753
			c0-11.463,9.144-20.747,20.381-20.747c11.251,0,20.394,9.284,20.394,20.747C224.706,184.22,215.564,193.512,204.312,193.512z
			 M307.532,193.666c-11.346,0-20.55-9.36-20.55-20.908c0-11.547,9.204-20.908,20.55-20.908c11.332,0,20.535,9.36,20.535,20.908
			C328.067,184.306,318.865,193.666,307.532,193.666z"/>
	</g>
</g>
<g>
</g>
<g>
</g>
<g>
</g>
<g>
</g>
<g>
</g>
<g>
</g>
<g>
</g>
<g>
</g>
<g>
</g>
<g>
</g>
<g>
</g>
<g>
</g>
<g>
</g>
<g>
</g>
<g>
</g>
</svg>
