<svg xmlns="http://www.w3.org/2000/svg" viewBox="0 0 512 512" fill="#ef4980"><path d="M440.86 303.607c-27.106 0-59.31-6.311-68.409-24.022-5.41-10.534.128-22.059 5.728-29.872 21.037-29.36 32.158-62.108 32.158-94.703C410.336 69.538 341.101 0 255.999 0S101.662 69.538 101.662 155.01c0 32.595 11.12 65.343 32.158 94.703 5.598 7.813 11.138 19.339 5.728 29.872-9.099 17.712-41.303 24.022-68.409 24.022-30.01 0-54.424 24.497-54.424 54.609s24.415 54.609 54.424 54.609c13.878 0 32.714-3.057 49.694-7.208a567.03 567.03 0 01-10.638 7.91c-21.305 15.39-28.094 40.131-17.718 64.568 6.132 14.441 18.071 25.704 32.76 30.902 13.514 4.781 27.708 3.827 39.96-2.695 35.939-19.129 59.199-51.213 76.181-74.639 4.617-6.369 10.521-14.513 14.62-19.001 4.099 4.489 10.003 12.633 14.621 19.001 16.983 23.426 40.242 55.509 76.181 74.639A48.314 48.314 0 00369.593 512c5.713 0 11.5-.997 17.168-3.002 14.688-5.197 26.629-16.46 32.76-30.902 10.375-24.438 3.587-49.178-17.717-64.568-3.453-2.493-7.075-5.206-10.639-7.91 16.979 4.15 35.818 7.208 49.694 7.208 30.01 0 54.424-24.497 54.424-54.609.002-30.111-24.413-54.61-54.423-54.61zM204.312 193.512c-11.237 0-20.381-9.291-20.381-20.753 0-11.463 9.144-20.747 20.381-20.747 11.251 0 20.394 9.284 20.394 20.747 0 11.461-9.142 20.753-20.394 20.753zm103.22.154c-11.346 0-20.55-9.36-20.55-20.908 0-11.547 9.204-20.908 20.55-20.908 11.332 0 20.535 9.36 20.535 20.908 0 11.548-9.202 20.908-20.535 20.908z"/></svg>